<?xml version="1.0" standalone="no"?>
<!DOCTYPE svg PUBLIC "-//W3C//DTD SVG 20010904//EN"
 "http://www.w3.org/TR/2001/REC-SVG-20010904/DTD/svg10.dtd">
<svg version="1.0" xmlns="http://www.w3.org/2000/svg"
 width="1610.000000pt" height="1610.000000pt" viewBox="0 0 1610.000000 1610.000000"
 preserveAspectRatio="xMidYMid meet">
<metadata>
Created by potrace 1.16, written by Peter Selinger 2001-2019
</metadata>
<g transform="translate(0.000000,1610.000000) scale(0.100000,-0.100000)"
fill="#000000" stroke="none">
<path d="M7970 14864 c-175 -7 -437 -25 -500 -34 -36 -6 -144 -19 -240 -31
-194 -23 -250 -33 -490 -83 -315 -66 -778 -199 -927 -267 -24 -10 -46 -19 -49
-19 -9 0 -258 -101 -269 -109 -5 -4 -26 -14 -45 -21 -52 -20 -403 -193 -495
-244 -137 -77 -166 -94 -295 -174 -168 -104 -457 -302 -530 -365 -8 -7 -33
-26 -55 -42 -44 -33 -57 -44 -130 -105 -27 -23 -70 -58 -94 -78 -24 -21 -54
-46 -65 -57 -12 -11 -38 -33 -57 -49 -146 -122 -555 -531 -700 -701 -19 -21
-41 -46 -49 -55 -36 -38 -126 -144 -140 -164 -15 -21 -22 -30 -85 -105 -98
-116 -445 -615 -445 -640 0 -5 -4 -11 -8 -13 -18 -7 -209 -352 -299 -538 -35
-74 -70 -146 -78 -160 -17 -33 -115 -266 -115 -274 0 -3 -9 -25 -19 -49 -11
-23 -33 -80 -49 -127 -17 -47 -35 -96 -40 -110 -16 -36 -97 -301 -122 -395
-146 -550 -213 -996 -241 -1614 -17 -369 25 -1004 87 -1336 8 -44 26 -138 39
-210 42 -230 119 -533 189 -750 20 -60 36 -114 36 -120 0 -5 6 -22 14 -36 7
-15 26 -64 41 -110 15 -46 31 -88 35 -94 4 -5 17 -37 29 -69 64 -174 266 -596
376 -786 24 -41 53 -93 65 -115 23 -43 30 -53 115 -185 123 -191 392 -567 444
-621 9 -9 41 -47 71 -84 30 -38 66 -80 80 -95 14 -15 48 -53 76 -86 29 -32 67
-75 85 -95 19 -19 75 -79 124 -133 93 -101 350 -348 490 -471 82 -71 120 -103
235 -197 36 -29 67 -55 70 -58 3 -3 48 -37 100 -75 52 -39 100 -74 105 -78 6
-5 48 -35 95 -68 47 -32 90 -62 95 -67 6 -4 35 -23 65 -42 30 -19 60 -38 65
-43 6 -5 55 -35 110 -67 55 -33 105 -64 111 -69 6 -5 38 -23 70 -40 33 -17 79
-43 104 -57 137 -81 608 -302 700 -329 14 -4 30 -11 35 -15 20 -16 470 -168
579 -196 33 -8 81 -22 106 -30 25 -8 95 -26 155 -40 61 -14 128 -30 150 -35
141 -35 501 -91 725 -114 85 -8 202 -21 260 -27 142 -17 866 -17 1015 0 61 6
180 19 265 27 225 23 586 79 725 114 22 5 103 25 180 44 268 67 658 189 815
257 25 10 101 42 170 71 69 28 136 57 150 64 14 7 117 59 230 115 113 56 237
121 277 144 187 107 289 169 313 191 9 8 20 15 24 15 7 0 88 51 96 61 3 3 25
19 50 34 25 15 47 31 50 34 3 4 30 23 60 44 82 56 104 71 116 82 7 5 24 19 39
30 27 20 111 85 190 148 153 123 425 366 535 478 133 135 300 314 395 424 28
31 57 65 65 74 24 26 241 301 286 361 84 113 324 466 324 475 0 2 21 39 48 83
26 44 56 95 67 113 121 209 301 576 357 729 12 30 24 60 28 65 4 6 17 39 30
75 13 36 29 79 36 95 15 35 87 253 133 400 52 168 112 421 171 720 17 81 60
399 75 540 45 446 43 1119 -5 1490 -31 241 -52 385 -65 457 -41 223 -144 670
-165 713 -5 11 -19 54 -30 95 -26 91 -101 311 -110 325 -4 6 -13 28 -20 50
-16 52 -91 235 -142 350 -150 337 -376 741 -558 1000 -12 17 -48 68 -81 115
-33 47 -65 92 -72 100 -7 9 -25 33 -42 55 -16 22 -33 45 -37 50 -5 6 -36 46
-70 90 -86 111 -255 307 -398 460 -151 162 -472 473 -580 561 -19 16 -37 31
-40 34 -14 14 -90 78 -124 105 -22 17 -64 50 -95 75 -31 25 -66 52 -77 60 -12
8 -48 35 -79 60 -70 54 -150 111 -265 187 -47 31 -87 60 -90 64 -3 3 -30 21
-60 38 -30 18 -89 53 -130 78 -65 39 -185 109 -285 165 -59 32 -414 208 -421
208 -4 0 -26 9 -48 19 -23 11 -70 31 -106 46 -36 14 -74 30 -85 35 -11 6 -51
21 -90 35 -38 14 -79 30 -90 35 -30 14 -254 87 -390 127 -166 49 -321 88 -515
129 -240 50 -296 60 -490 83 -96 12 -206 25 -245 31 -168 23 -694 43 -915 34z
m720 -89 c241 -16 247 -16 445 -40 1258 -152 2401 -651 3402 -1487 48 -40 90
-75 93 -79 3 -3 48 -43 100 -90 181 -160 352 -333 584 -589 299 -329 612 -767
836 -1170 425 -765 682 -1588 774 -2485 36 -350 47 -905 26 -1295 -39 -712
-188 -1405 -435 -2035 -58 -146 -77 -191 -137 -325 -218 -482 -561 -1024 -917
-1450 -846 -1011 -1876 -1732 -3031 -2123 -471 -159 -921 -256 -1450 -311
-467 -49 -1132 -49 -1600 0 -376 39 -842 127 -1110 209 -25 7 -79 23 -120 35
-214 62 -515 173 -745 275 -523 232 -1090 586 -1531 957 -224 187 -278 237
-502 463 -358 361 -580 626 -853 1020 -168 243 -420 691 -537 955 -299 677
-462 1308 -539 2090 -15 153 -18 276 -18 720 0 548 4 627 46 965 76 612 241
1227 469 1750 10 22 30 69 46 105 95 219 308 604 479 866 340 520 812 1058
1284 1464 36 30 69 60 75 66 25 24 308 246 396 310 528 386 1099 684 1705 891
578 196 1090 294 1795 342 202 14 732 12 970 -4z"/>
<path d="M7275 14144 c-34 -22 -46 -25 -107 -22 -65 3 -69 2 -64 -17 19 -65
47 -297 43 -342 -4 -34 -2 -53 6 -56 11 -3 42 -149 53 -247 10 -88 10 -90 54
-90 22 0 40 5 40 10 0 6 10 10 23 10 22 0 22 1 15 78 -3 42 -7 107 -7 144 -1
65 -2 67 -28 70 -27 3 -28 6 -31 61 -3 48 0 57 14 57 13 0 15 6 9 28 -3 15 -9
88 -12 163 l-5 136 27 21 c39 31 16 27 -30 -4z"/>
<path d="M8082 14140 c-55 -39 -115 -158 -135 -264 -8 -42 -11 -79 -6 -82 5
-3 9 -22 9 -42 1 -97 73 -271 140 -337 33 -32 38 -35 33 -15 -3 12 -14 25 -25
27 -15 4 -18 15 -18 59 0 41 4 54 15 54 12 0 15 16 15 83 0 45 3 99 6 120 6
33 4 37 -15 37 -19 0 -21 6 -21 55 0 42 3 55 15 55 9 0 15 10 16 23 0 12 4 75
7 140 4 64 7 117 6 117 -1 0 -20 -13 -42 -30z"/>
<path d="M8435 14058 l0 -98 53 0 52 0 0 -55 0 -55 -49 0 c-40 0 -51 -4 -64
-23 -10 -16 -12 -28 -6 -40 6 -9 9 -100 7 -205 l-3 -189 22 14 c12 8 28 29 37
47 8 17 24 40 35 50 11 10 23 32 26 50 4 17 15 58 25 91 10 33 21 77 25 98 3
20 10 37 16 37 6 0 6 6 0 18 -5 9 -14 53 -21 96 -16 107 -70 211 -127 245
l-28 18 0 -99z"/>
<path d="M9033 14082 c-63 -42 -140 -163 -165 -262 -5 -19 -9 -80 -10 -135 0
-82 4 -114 26 -178 26 -79 60 -142 89 -166 15 -12 16 -8 11 36 -7 55 31 330
48 350 6 8 10 46 10 86 -1 40 7 122 17 182 10 61 18 111 17 112 -1 1 -20 -10
-43 -25z"/>
<path d="M7690 14058 c0 -21 -6 -27 -31 -32 -17 -3 -42 -6 -55 -6 -23 0 -24
-2 -24 -89 0 -119 -14 -138 -118 -154 -46 -7 -72 -16 -72 -24 0 -8 13 -13 35
-13 19 0 35 5 35 10 0 6 25 10 55 10 42 0 55 -3 55 -15 0 -8 8 -15 18 -15 15
0 17 8 14 60 -4 58 -3 60 30 80 18 10 48 42 67 69 31 47 32 51 21 88 -16 50
-30 64 -30 31z"/>
<path d="M9380 13991 c0 -36 -3 -83 -6 -103 l-7 -38 47 0 46 0 0 -55 0 -55
-50 0 c-70 0 -86 -18 -82 -91 2 -31 -3 -94 -12 -141 -9 -46 -16 -107 -16 -134
0 -30 -7 -59 -17 -73 -12 -18 -13 -22 -2 -16 34 21 69 49 69 57 0 5 16 24 35
44 19 19 35 40 35 47 0 7 16 45 35 86 19 40 35 81 35 91 0 10 9 25 20 33 11 8
18 16 15 19 -3 3 -9 52 -13 109 -10 121 -39 199 -97 253 l-35 33 0 -66z"/>
<path d="M9910 13936 c0 -36 -5 -77 -11 -93 -6 -15 -15 -50 -19 -78 -14 -78
-36 -149 -48 -153 -15 -5 -16 -112 -2 -112 6 0 10 14 10 30 0 29 2 30 44 30
24 0 58 -3 75 -6 29 -6 31 -9 31 -50 l0 -44 49 0 49 0 6 -47 c4 -27 11 -100
16 -163 5 -63 12 -150 16 -192 l7 -78 70 0 c62 0 68 2 62 18 -4 9 -9 115 -11
235 -2 120 -8 227 -14 237 -11 21 -14 109 -4 134 3 9 12 16 19 16 6 0 22 9 35
20 13 11 28 20 34 20 7 0 27 14 46 31 32 28 33 29 5 11 -16 -10 -38 -21 -47
-25 -9 -3 -62 -33 -117 -66 -87 -53 -107 -61 -151 -61 l-50 0 0 73 c0 39 7 92
15 117 8 25 21 72 29 105 8 33 18 70 22 83 6 21 4 22 -48 22 -45 0 -59 4 -78
25 -13 14 -27 25 -32 25 -4 0 -8 -29 -8 -64z"/>
<path d="M5670 13689 c-26 -22 -44 -29 -77 -29 -23 0 -44 -4 -47 -8 -3 -5 7
-40 23 -78 15 -38 38 -96 51 -129 13 -33 26 -88 28 -123 4 -54 8 -65 27 -72
22 -8 48 -52 60 -103 4 -15 11 -30 16 -33 5 -3 9 -12 9 -21 0 -15 36 -102 60
-145 6 -10 10 -37 10 -60 l0 -41 23 21 c18 17 36 22 78 22 30 0 65 3 79 7 24
7 23 8 -10 13 -30 4 -39 12 -61 56 -14 28 -32 68 -38 90 -7 21 -16 48 -21 59
-43 101 -54 226 -22 244 13 8 8 10 -25 11 l-42 0 -16 55 c-9 30 -20 55 -24 55
-7 0 -38 154 -44 212 l-2 26 -35 -29z"/>
<path d="M7616 13581 c4 -20 10 -83 13 -141 l6 -104 39 39 c51 53 96 133 96
171 0 49 -17 61 -93 67 l-69 5 8 -37z"/>
<path d="M5126 13447 c-17 -12 -48 -29 -70 -37 -24 -9 -42 -23 -44 -34 -4 -17
56 -148 71 -154 4 -2 7 -8 7 -13 0 -5 10 -31 22 -59 15 -34 28 -50 40 -50 15
0 18 -9 18 -55 0 -48 -3 -57 -22 -65 -20 -8 -18 -9 14 -9 27 -1 38 -6 43 -20
3 -11 18 -37 32 -58 14 -21 33 -60 42 -88 l16 -50 78 -3 c69 -3 77 -5 77 -22
0 -11 5 -20 10 -20 15 0 12 11 -14 66 -39 82 -63 137 -76 177 -6 20 -16 37
-21 37 -13 0 -11 104 3 118 9 9 9 12 -2 12 -8 0 -25 3 -37 6 -17 5 -23 2 -23
-10 0 -13 -11 -16 -55 -16 l-55 0 0 55 0 55 34 0 35 0 -21 60 c-11 33 -23 60
-28 60 -4 0 -11 20 -14 45 -4 25 -11 45 -16 45 -5 0 -10 11 -12 24 l-3 25 -29
-22z"/>
<path d="M9920 13414 c0 -25 -1 -26 -64 -22 l-64 3 -6 -35 c-3 -19 -16 -75
-30 -125 -13 -49 -23 -91 -21 -93 2 -2 27 -7 57 -11 29 -5 61 -12 71 -16 15
-6 17 0 17 57 0 63 45 223 72 256 8 9 5 12 -11 12 -16 0 -21 -6 -21 -26z"/>
<path d="M4647 13153 c-19 -27 -38 -43 -58 -47 -16 -3 -40 -13 -54 -22 l-24
-16 28 -24 c15 -13 45 -56 65 -96 20 -40 48 -92 61 -116 15 -26 25 -64 27 -95
3 -50 4 -52 34 -55 27 -3 37 -14 85 -93 30 -49 62 -102 71 -117 26 -40 58
-111 58 -130 1 -12 7 -9 25 13 19 23 25 42 25 82 0 39 4 52 16 55 16 3 6 24
-74 172 -12 21 -23 44 -26 50 -3 7 -10 5 -19 -6 -10 -13 -29 -18 -66 -18 l-51
0 0 54 c0 76 25 106 88 106 53 0 47 17 -7 22 -32 3 -37 9 -72 78 -61 122 -93
193 -99 219 -5 23 -6 23 -33 -16z"/>
<path d="M11525 13169 c-22 -12 -52 -28 -66 -35 -24 -13 -86 -75 -131 -132
-10 -12 -27 -22 -38 -22 -18 0 -20 -7 -20 -58 0 -33 -6 -66 -14 -77 -7 -11
-21 -48 -31 -83 -23 -80 -16 -178 16 -247 l24 -50 3 69 c2 43 8 74 16 80 8 6
35 52 61 101 58 110 59 111 95 119 29 5 30 7 30 62 0 50 6 66 50 139 28 46 50
86 50 90 0 21 34 35 92 36 35 1 52 4 38 6 -14 3 -29 9 -34 14 -18 17 -100 10
-141 -12z"/>
<path d="M11860 12974 c0 -49 -6 -73 -30 -117 -16 -31 -30 -59 -30 -62 0 -3
16 -5 35 -5 l35 0 0 -55 0 -55 -55 0 c-49 0 -55 2 -55 21 0 17 -4 20 -22 15
-13 -3 -31 -6 -40 -6 -15 0 -18 -10 -18 -60 0 -51 -5 -69 -33 -113 -18 -29
-46 -80 -62 -114 -35 -71 -53 -83 -133 -83 -69 -1 -51 -17 28 -27 75 -9 156
35 266 143 60 58 93 84 110 84 23 0 24 3 24 58 0 36 7 72 17 93 21 41 42 114
42 149 1 14 -5 37 -13 52 -8 14 -19 43 -26 65 -7 21 -19 47 -26 58 -13 17 -14
13 -14 -41z"/>
<path d="M3872 12500 l-83 -80 40 0 c36 0 43 -5 72 -45 18 -25 36 -45 41 -45
5 0 13 -11 18 -25 5 -14 14 -25 20 -25 5 0 10 -6 10 -13 0 -7 13 -28 28 -47
41 -50 52 -74 52 -113 0 -31 3 -35 34 -40 29 -5 76 -36 76 -51 0 -3 23 -36 52
-73 28 -37 57 -81 64 -98 l12 -30 19 33 c10 17 25 32 34 32 9 0 27 9 40 20
l24 19 -27 1 c-16 0 -28 6 -28 13 0 6 -20 37 -45 66 -24 30 -49 67 -56 83 -6
15 -15 28 -20 28 -5 0 -10 30 -10 68 -1 37 -3 59 -6 50 -4 -15 -16 -18 -64
-18 l-59 0 0 53 c0 44 -4 58 -25 77 -14 13 -25 28 -25 33 0 23 -43 67 -66 67
-23 0 -24 3 -24 70 0 39 -3 70 -7 70 -5 -1 -45 -37 -91 -80z"/>
<path d="M12240 12495 c-5 -14 -13 -25 -17 -25 -5 0 -21 -20 -36 -45 -25 -39
-33 -45 -63 -45 l-34 0 0 -54 c0 -35 -5 -60 -15 -70 -8 -8 -15 -17 -15 -21 0
-3 -15 -26 -32 -50 -18 -24 -42 -58 -53 -76 -29 -48 -38 -61 -62 -96 -13 -17
-23 -38 -23 -46 0 -13 27 -26 53 -27 4 0 7 20 7 45 l0 46 58 -3 57 -3 42 55
c93 121 92 120 134 120 21 0 39 5 39 10 0 6 -25 10 -55 10 l-55 0 0 55 0 55
55 0 c37 0 55 -4 55 -12 0 -7 11 4 25 24 14 20 25 41 25 47 0 5 4 11 8 13 8 3
52 63 52 71 0 3 -16 8 -35 11 -21 4 -35 13 -35 21 0 10 -11 15 -35 15 -29 0
-37 -5 -45 -25z"/>
<path d="M8762 11778 l-102 -60 0 -70 c0 -38 -4 -77 -9 -86 -5 -9 -14 -132
-21 -272 -14 -280 -12 -272 -98 -465 -69 -152 -119 -195 -231 -195 l-62 0 -29
-62 c-16 -34 -32 -81 -36 -104 -8 -57 -36 -68 -152 -62 -188 12 -378 129 -433
266 -12 31 -23 58 -24 59 -3 5 -230 -94 -315 -137 -112 -56 -162 -98 -206
-173 -66 -113 -66 -262 2 -474 14 -43 40 -125 59 -183 59 -186 104 -361 131
-515 25 -138 27 -172 27 -420 0 -277 -5 -335 -63 -645 -52 -279 -52 -704 1
-1155 5 -49 13 -226 16 -392 l6 -303 106 0 c165 -1 433 -31 469 -54 6 -4 13
15 16 46 4 29 19 128 33 221 l26 167 53 0 c52 0 53 -1 58 -32 9 -56 36 -391
36 -438 0 -48 0 -48 79 -92 20 -11 52 -33 73 -49 l36 -29 13 72 c6 40 16 77
21 83 4 5 8 18 8 28 0 10 14 67 31 126 85 292 225 600 362 795 20 29 20 38 14
380 -4 215 -11 354 -17 360 -5 5 -10 39 -10 74 0 69 -44 386 -60 438 -22 68
-1 699 29 891 l8 51 -70 -74 c-89 -95 -106 -104 -206 -104 -137 0 -326 74
-633 247 l-98 55 0 54 c0 52 1 54 38 73 59 30 161 140 232 249 l65 101 52 1
c50 0 53 -2 128 -72 42 -40 91 -83 108 -95 37 -28 32 -31 152 107 118 137 216
271 260 356 35 69 39 83 47 192 4 64 10 126 12 136 3 11 0 27 -7 35 -8 9 -12
57 -12 145 l0 130 70 43 c60 38 77 43 127 43 46 0 67 -6 108 -30 28 -16 53
-30 56 -30 4 0 42 20 86 45 102 57 151 60 233 14 l55 -31 0 -133 c0 -129 -1
-134 -24 -152 -17 -13 -31 -45 -50 -112 -15 -52 -25 -95 -24 -96 2 -1 44 -26
93 -55 50 -29 117 -70 151 -90 l60 -37 82 48 c72 43 90 49 138 49 l55 0 96
-95 c53 -52 101 -95 105 -95 4 0 8 110 8 245 l0 244 68 39 c37 21 121 70 188
108 l120 69 -154 -3 -154 -4 -163 -94 c-142 -82 -169 -94 -209 -94 -26 0 -60
7 -77 16 -29 14 -30 18 -27 71 l3 55 154 89 c146 84 157 89 213 89 l58 0 0 45
c0 44 0 44 -67 83 -398 231 -1090 631 -1134 657 l-55 32 -102 -59z"/>
<path d="M7757 11378 c-20 -16 -67 -106 -67 -131 0 -10 5 -28 11 -40 19 -36
90 -117 102 -117 19 0 48 60 54 110 4 35 0 59 -16 95 -11 26 -21 58 -21 71 0
18 -5 24 -23 24 -13 0 -31 -6 -40 -12z"/>
<path d="M6860 4453 c-136 -10 -514 -57 -635 -79 -327 -58 -427 -77 -547 -102
-71 -14 -127 -27 -125 -28 1 -1 119 4 262 11 143 7 395 18 560 25 165 6 430
18 590 26 159 8 340 14 401 14 103 0 116 -2 170 -29 89 -44 286 -107 409 -131
300 -58 569 -24 833 107 l72 36 248 -7 c136 -3 355 -11 487 -16 808 -34 978
-40 981 -37 2 2 -17 19 -43 38 -40 28 -66 37 -173 56 -163 30 -448 67 -677 88
-195 19 -489 17 -593 -4 -30 -6 -104 -19 -165 -30 -199 -36 -448 -82 -543
-102 -119 -24 -206 -24 -357 2 -113 19 -248 41 -445 74 -198 33 -354 55 -485
70 -77 8 -149 17 -160 18 -11 2 -40 1 -65 0z"/>
<path d="M10185 3479 c-27 -5 -64 -11 -81 -14 -17 -3 -39 -11 -49 -19 -17 -12
-7 -13 70 -9 182 10 207 -22 202 -257 -3 -155 -12 -182 -75 -218 -33 -18 -55
-22 -136 -22 l-96 0 0 241 c0 226 -1 241 -17 233 -36 -16 -120 -16 -145 0
l-23 15 3 -255 c2 -229 0 -259 -15 -286 -17 -28 -17 -30 1 -43 18 -14 19 -32
20 -309 l1 -295 22 21 c20 19 31 20 101 15 90 -6 111 1 83 25 -27 23 -35 132
-26 367 3 108 8 198 10 199 11 12 93 22 177 22 91 0 98 -2 110 -22 8 -15 14
-94 18 -229 4 -113 10 -211 14 -217 4 -7 24 -21 45 -32 l38 -19 52 35 c36 25
49 39 43 47 -16 21 -27 118 -27 252 0 160 -7 177 -82 205 -30 11 -58 20 -63
20 -6 0 -10 24 -10 53 1 48 4 55 46 97 48 47 104 149 104 188 0 66 -91 166
-184 201 -62 23 -59 23 -131 10z"/>
<path d="M6065 3461 c-57 -22 -155 -27 -173 -9 -6 6 -15 8 -19 4 -4 -4 -8
-103 -8 -221 0 -190 -2 -215 -18 -233 -16 -17 -16 -20 -2 -32 14 -11 16 -50
14 -289 l-1 -276 68 -3 c42 -2 75 -9 85 -18 14 -13 16 0 22 158 4 95 7 215 7
267 l0 94 98 -5 c60 -4 116 -13 147 -25 46 -17 50 -22 57 -58 4 -22 7 -130 7
-241 l1 -201 51 -59 c61 -69 85 -85 119 -77 36 8 42 13 32 26 -19 24 -34 210
-27 327 9 145 -3 176 -89 233 l-56 37 0 53 c0 50 2 54 59 109 68 65 85 105 79
188 -4 63 -31 112 -97 178 -81 81 -245 115 -356 73z m210 -35 c59 -25 69 -53
73 -203 5 -164 -2 -218 -33 -249 -22 -22 -32 -24 -124 -24 -55 0 -111 4 -125
10 l-26 10 0 204 c0 112 3 218 6 235 l7 31 94 0 c58 0 106 -5 128 -14z"/>
<path d="M9130 3400 c-65 -34 -145 -40 -186 -14 -28 19 -43 12 -24 -11 11 -13
14 -75 14 -273 1 -228 -1 -260 -16 -281 -16 -23 -16 -26 -1 -43 14 -16 18 -57
25 -261 5 -133 6 -275 3 -314 -6 -75 0 -87 29 -58 22 22 108 19 156 -5 69 -35
128 -26 248 39 72 39 85 60 15 24 -43 -22 -58 -24 -145 -21 -53 2 -100 6 -103
10 -14 14 -24 165 -24 370 -1 245 -11 228 133 228 l96 0 0 36 0 36 -42 -6
c-24 -3 -70 -9 -103 -12 -91 -9 -90 -11 -90 225 0 108 4 213 8 234 12 56 40
70 160 74 96 4 105 3 157 -24 52 -26 55 -31 62 -73 3 -25 7 -73 7 -107 1 -63
1 -63 30 -63 16 0 30 6 32 13 2 6 3 68 1 137 l-3 125 -52 -3 c-36 -2 -75 5
-126 22 -105 36 -187 35 -261 -4z"/>
<path d="M7147 3407 c-20 -7 -56 -29 -80 -50 -87 -79 -127 -123 -133 -142 -3
-11 -16 -42 -29 -70 -27 -55 -65 -193 -65 -235 0 -15 -7 -33 -15 -40 -19 -15
-19 -36 -2 -47 9 -5 17 -51 24 -138 5 -72 14 -139 20 -150 6 -11 20 -47 32
-80 65 -180 175 -303 301 -336 43 -11 47 -10 110 26 76 44 154 120 164 160 4
15 18 44 32 64 13 19 24 45 24 57 0 12 9 66 20 119 11 53 20 111 20 128 0 17
10 51 21 75 14 27 18 47 12 51 -19 12 -32 49 -42 117 -16 113 -28 155 -69 244
-31 67 -53 99 -106 150 -72 70 -136 109 -176 109 -14 0 -42 -6 -63 -12z m180
-62 c35 -24 42 -69 45 -287 3 -201 2 -208 -19 -229 -21 -21 -21 -22 -3 -48 16
-23 19 -55 23 -263 5 -223 4 -239 -15 -278 -30 -59 -64 -74 -160 -67 -155 10
-163 29 -160 352 3 213 5 243 21 265 17 24 17 26 -2 52 -19 25 -19 35 -10 246
9 230 12 244 58 262 37 16 198 12 222 -5z"/>
<path d="M8180 3396 c-41 -13 -64 -31 -138 -105 -58 -59 -125 -183 -138 -256
-3 -22 -10 -44 -14 -50 -4 -5 -11 -35 -15 -65 -7 -54 -17 -79 -45 -113 -11
-14 -11 -20 -2 -26 7 -4 21 -70 32 -152 25 -186 42 -245 97 -351 54 -103 137
-190 199 -207 21 -6 112 -11 200 -11 l161 0 5 263 c3 144 9 270 13 280 6 15 4
16 -20 7 -14 -5 -55 -10 -91 -10 -61 0 -64 -1 -54 -19 5 -11 13 -87 17 -170 6
-155 6 -160 -40 -251 -14 -28 -44 -37 -130 -39 -72 -1 -123 19 -139 56 -19 43
-18 554 1 576 11 14 11 22 -3 52 -13 27 -17 70 -19 202 -2 210 6 264 44 308
28 31 35 34 114 40 98 8 131 -1 172 -49 44 -52 53 -88 57 -224 l4 -127 29 0
28 0 0 182 0 183 -56 0 c-47 0 -61 4 -84 26 -31 29 -107 65 -133 63 -9 -1 -33
-6 -52 -13z"/>
</g>
</svg>
